<svg viewBox="0 0 600 400" xmlns="http://www.w3.org/2000/svg">
<g transform="translate(50, 360)">
<g>
<circle cx="133.33333333333334" cy="-1.6661666166616662" fill="#35C788" r="5"/>
<circle cx="358.3333333333333" cy="-34.27542754275427" fill="#35C788" r="5"/>
<circle cx="225" cy="-203.000300030003" fill="#35C788" r="5"/>
<circle cx="116.66666666666667" cy="-1.5641564156415642" fill="#35C788" r="5"/>
<circle cx="83.33333333333333" cy="-1.7681768176817683" fill="#35C788" r="5"/>
<circle cx="133.33333333333334" cy="-13.363336333633363" fill="#35C788" r="5"/>
<circle cx="91.66666666666667" cy="-1149.110911091109" fill="#35C788" r="5"/>
<circle cx="191.66666666666666" cy="-30.05900590059006" fill="#35C788" r="5"/>
<circle cx="83.33333333333333" cy="-49.23692369236924" fill="#35C788" r="5"/>
<circle cx="291.6666666666667" cy="-19.755975597559758" fill="#35C788" r="5"/>
<circle cx="150" cy="-259.2079207920792" fill="#35C788" r="5"/>
<circle cx="125" cy="-125.26852685268527" fill="#35C788" r="5"/>
<circle cx="108.33333333333333" cy="-15.437543754375438" fill="#35C788" r="5"/>
<circle cx="191.66666666666666" cy="-175.32153215321532" fill="#35C788" r="5"/>
<circle cx="116.66666666666667" cy="-73.44734473447345" fill="#35C788" r="5"/>
<circle cx="175" cy="-559.7299729972997" fill="#35C788" r="5"/>
<circle cx="233.33333333333334" cy="-95.75357535753575" fill="#35C788" r="5"/>
<circle cx="116.66666666666667" cy="-0.8160816081608161" fill="#35C788" r="5"/>
<circle cx="91.66666666666667" cy="-14.213421342134213" fill="#35C788" r="5"/>
<circle cx="108.33333333333333" cy="-7.106710671067106" fill="#35C788" r="5"/>
<circle cx="150" cy="-174.8794879487949" fill="#35C788" r="5"/>
<circle cx="91.66666666666667" cy="-22.442244224422442" fill="#35C788" r="5"/>
<circle cx="150" cy="-25.162516251625163" fill="#35C788" r="5"/>
<circle cx="116.66666666666667" cy="-2.7542754275427543" fill="#35C788" r="5"/>
<circle cx="91.66666666666667" cy="-22.23822382238224" fill="#35C788" r="5"/>
<circle cx="175" cy="-0.20402040204020402" fill="#35C788" r="5"/>
<circle cx="158.33333333333334" cy="-1.1561156115611562" fill="#35C788" r="5"/>
<circle cx="91.66666666666667" cy="-518.6198619861987" fill="#35C788" r="5"/>
<circle cx="91.66666666666667" cy="-49.50895089508951" fill="#35C788" r="5"/>
<circle cx="108.33333333333333" cy="-28.426842684268426" fill="#35C788" r="5"/>
<circle cx="141.66666666666666" cy="-240.7100710071007" fill="#35C788" r="5"/>
<circle cx="83.33333333333333" cy="-1.02010201020102" fill="#35C788" r="5"/>
<circle cx="100" cy="-50.76707670767077" fill="#35C788" r="5"/>
<circle cx="116.66666666666667" cy="-57.19371937193719" fill="#35C788" r="5"/>
<circle cx="125" cy="-1462.7242724272428" fill="#35C788" r="5"/>
</g>
<g>
<g>
<line stroke="black" stroke-width="1" x1="83.33333333333333" x2="83.33333333333333" y1="0" y2="10"/>
<line stroke="black" stroke-width="1" x1="250" x2="250" y1="0" y2="10"/>
<line stroke="black" stroke-width="1" x1="416.6666666666667" x2="416.6666666666667" y1="0" y2="10"/>
</g>
<line stroke="black" stroke-width="1" x1="0" x2="500" y1="0" y2="0"/>
<g>
<text font-size="12" text-anchor="middle" x="83.33333333333333" y="20">
0
</text>
<text font-size="12" text-anchor="middle" x="250" y="20">
20
</text>
<text font-size="12" text-anchor="middle" x="416.6666666666667" y="20">
40
</text>
</g>
<text font-size="12" text-anchor="middle" x="250" y="30">
Number of comments
</text>
</g>
<g>
<g>
<line stroke="black" stroke-width="1" x1="0" x2="-10" y1="-67.97279727972797" y2="-67.97279727972797"/>
<line stroke="black" stroke-width="1" x1="0" x2="-10" y1="-135.97959795979597" y2="-135.97959795979597"/>
<line stroke="black" stroke-width="1" x1="0" x2="-10" y1="-203.98639863986398" y2="-203.98639863986398"/>
<line stroke="black" stroke-width="1" x1="0" x2="-10" y1="-271.993199319932" y2="-271.993199319932"/>
<line stroke="black" stroke-width="1" x1="0" x2="-10" y1="-340" y2="-340"/>
</g>
<line stroke="black" stroke-0="1" x1="0" x2="0" y1="0" y2="-340"/>
<g>
<text dominant-baseline="middle" font-size="12" text-anchor="end" x="-15" y="-67.97279727972797">
2000
</text>
<text dominant-baseline="middle" font-size="12" text-anchor="end" x="-15" y="-135.97959795979597">
4000
</text>
<text dominant-baseline="middle" font-size="12" text-anchor="end" x="-15" y="-203.98639863986398">
6000
</text>
<text dominant-baseline="middle" font-size="12" text-anchor="end" x="-15" y="-271.993199319932">
8000
</text>
<text dominant-baseline="middle" font-size="12" text-anchor="end" x="-15" y="-340">
10000
</text>
</g>
<text font-size="12" text-anchor="middle" transform="rotate(-90 -30 -170)" x="-30" y="-170">
User upvote count
</text>
</g>
</g>
</svg>