<svg viewBox="0 0 600 400" xmlns="http://www.w3.org/2000/svg">
<g transform="translate(50, 360)">
<g>
<path d="M267.72726,-6.666167 l10,10 m-10,0 l10,-10 z" fill="none" stroke="#DD3355" stroke-width="2"/>
<path d="M213.18182,-39.27543 l10,10 m-10,0 l10,-10 z" fill="none" stroke="#DD3355" stroke-width="2"/>
<path d="M158.63637,-208.0003 l10,10 m-10,0 l10,-10 z" fill="none" stroke="#DD3355" stroke-width="2"/>
<path d="M254.09091,-6.5641565 l10,10 m-10,0 l10,-10 z" fill="none" stroke="#DD3355" stroke-width="2"/>
<path d="M272.27274,-6.768177 l10,10 m-10,0 l10,-10 z" fill="none" stroke="#DD3355" stroke-width="2"/>
<path d="M217.72728,-18.363337 l10,10 m-10,0 l10,-10 z" fill="none" stroke="#DD3355" stroke-width="2"/>
<path d="M163.18182,-1154.111 l10,10 m-10,0 l10,-10 z" fill="none" stroke="#DD3355" stroke-width="2"/>
<path d="M249.54546,-35.059006 l10,10 m-10,0 l10,-10 z" fill="none" stroke="#DD3355" stroke-width="2"/>
<path d="M199.54546,-54.236923 l10,10 m-10,0 l10,-10 z" fill="none" stroke="#DD3355" stroke-width="2"/>
<path d="M81.36364,-24.755976 l10,10 m-10,0 l10,-10 z" fill="none" stroke="#DD3355" stroke-width="2"/>
<path d="M108.63636,-264.20792 l10,10 m-10,0 l10,-10 z" fill="none" stroke="#DD3355" stroke-width="2"/>
<path d="M149.54546,-130.26852 l10,10 m-10,0 l10,-10 z" fill="none" stroke="#DD3355" stroke-width="2"/>
<path d="M113.181816,-20.437544 l10,10 m-10,0 l10,-10 z" fill="none" stroke="#DD3355" stroke-width="2"/>
<path d="M90.454544,-180.32153 l10,10 m-10,0 l10,-10 z" fill="none" stroke="#DD3355" stroke-width="2"/>
<path d="M135.90909,-78.44734 l10,10 m-10,0 l10,-10 z" fill="none" stroke="#DD3355" stroke-width="2"/>
<path d="M104.09091,-564.73 l10,10 m-10,0 l10,-10 z" fill="none" stroke="#DD3355" stroke-width="2"/>
<path d="M95,-100.75358 l10,10 m-10,0 l10,-10 z" fill="none" stroke="#DD3355" stroke-width="2"/>
<path d="M85.90909,-5.8160815 l10,10 m-10,0 l10,-10 z" fill="none" stroke="#DD3355" stroke-width="2"/>
<path d="M126.818184,-19.21342 l10,10 m-10,0 l10,-10 z" fill="none" stroke="#DD3355" stroke-width="2"/>
<path d="M104.09091,-12.10671 l10,10 m-10,0 l10,-10 z" fill="none" stroke="#DD3355" stroke-width="2"/>
<path d="M90.454544,-179.87949 l10,10 m-10,0 l10,-10 z" fill="none" stroke="#DD3355" stroke-width="2"/>
<path d="M81.36364,-27.442244 l10,10 m-10,0 l10,-10 z" fill="none" stroke="#DD3355" stroke-width="2"/>
<path d="M67.72727,-30.162516 l10,10 m-10,0 l10,-10 z" fill="none" stroke="#DD3355" stroke-width="2"/>
<path d="M90.454544,-7.7542753 l10,10 m-10,0 l10,-10 z" fill="none" stroke="#DD3355" stroke-width="2"/>
<path d="M76.818184,-27.238224 l10,10 m-10,0 l10,-10 z" fill="none" stroke="#DD3355" stroke-width="2"/>
<path d="M58.636364,-5.2040205 l10,10 m-10,0 l10,-10 z" fill="none" stroke="#DD3355" stroke-width="2"/>
<path d="M63.18182,-6.1561155 l10,10 m-10,0 l10,-10 z" fill="none" stroke="#DD3355" stroke-width="2"/>
<path d="M204.09091,-523.6199 l10,10 m-10,0 l10,-10 z" fill="none" stroke="#DD3355" stroke-width="2"/>
<path d="M72.27273,-54.50895 l10,10 m-10,0 l10,-10 z" fill="none" stroke="#DD3355" stroke-width="2"/>
<path d="M67.72727,-33.42684 l10,10 m-10,0 l10,-10 z" fill="none" stroke="#DD3355" stroke-width="2"/>
<path d="M67.72727,-245.71007 l10,10 m-10,0 l10,-10 z" fill="none" stroke="#DD3355" stroke-width="2"/>
<path d="M72.27273,-6.020102 l10,10 m-10,0 l10,-10 z" fill="none" stroke="#DD3355" stroke-width="2"/>
<path d="M67.72727,-55.76708 l10,10 m-10,0 l10,-10 z" fill="none" stroke="#DD3355" stroke-width="2"/>
<path d="M63.18182,-62.193718 l10,10 m-10,0 l10,-10 z" fill="none" stroke="#DD3355" stroke-width="2"/>
<path d="M58.636364,-1467.7242 l10,10 m-10,0 l10,-10 z" fill="none" stroke="#DD3355" stroke-width="2"/>
</g>
<g>
<g>
<line stroke="black" stroke-width="1" x1="45.45454545454545" x2="45.45454545454545" y1="0" y2="10"/>
<line stroke="black" stroke-width="1" x1="136.36363636363637" x2="136.36363636363637" y1="0" y2="10"/>
<line stroke="black" stroke-width="1" x1="227.27272727272728" x2="227.27272727272728" y1="0" y2="10"/>
<line stroke="black" stroke-width="1" x1="318.1818181818182" x2="318.1818181818182" y1="0" y2="10"/>
<line stroke="black" stroke-width="1" x1="409.09090909090907" x2="409.09090909090907" y1="0" y2="10"/>
<line stroke="black" stroke-width="1" x1="500" x2="500" y1="0" y2="10"/>
</g>
<line stroke="black" stroke-width="1" x1="0" x2="500" y1="0" y2="0"/>
<g>
<text font-size="12" text-anchor="middle" x="45.45454545454545" y="20">
0
</text>
<text font-size="12" text-anchor="middle" x="136.36363636363637" y="20">
20
</text>
<text font-size="12" text-anchor="middle" x="227.27272727272728" y="20">
40
</text>
<text font-size="12" text-anchor="middle" x="318.1818181818182" y="20">
60
</text>
<text font-size="12" text-anchor="middle" x="409.09090909090907" y="20">
80
</text>
<text font-size="12" text-anchor="middle" x="500" y="20">
100
</text>
</g>
<text font-size="12" text-anchor="middle" x="250" y="30">
Rant upvotes
</text>
</g>
<g>
<g>
<line stroke="black" stroke-width="1" x1="0" x2="-10" y1="-67.97279727972797" y2="-67.97279727972797"/>
<line stroke="black" stroke-width="1" x1="0" x2="-10" y1="-135.97959795979597" y2="-135.97959795979597"/>
<line stroke="black" stroke-width="1" x1="0" x2="-10" y1="-203.98639863986398" y2="-203.98639863986398"/>
<line stroke="black" stroke-width="1" x1="0" x2="-10" y1="-271.993199319932" y2="-271.993199319932"/>
<line stroke="black" stroke-width="1" x1="0" x2="-10" y1="-340" y2="-340"/>
</g>
<line stroke="black" stroke-0="1" x1="0" x2="0" y1="0" y2="-340"/>
<g>
<text dominant-baseline="middle" font-size="12" text-anchor="end" x="-15" y="-67.97279727972797">
2000
</text>
<text dominant-baseline="middle" font-size="12" text-anchor="end" x="-15" y="-135.97959795979597">
4000
</text>
<text dominant-baseline="middle" font-size="12" text-anchor="end" x="-15" y="-203.98639863986398">
6000
</text>
<text dominant-baseline="middle" font-size="12" text-anchor="end" x="-15" y="-271.993199319932">
8000
</text>
<text dominant-baseline="middle" font-size="12" text-anchor="end" x="-15" y="-340">
10000
</text>
</g>
<text font-size="12" text-anchor="middle" transform="rotate(-90 -30 -170)" x="-30" y="-170">
User upvote count
</text>
</g>
</g>
</svg>